<?xml version="1.0" encoding="UTF-8"?>
<svg width="12.31mm" height="12.65mm" version="1.1" viewBox="0 0 169.31 161.65" xmlns="http://www.w3.org/2000/svg">
<g transform="translate(-23.576 -56.146)" stroke="#fff" stroke-linejoin="bevel" stroke-width=".9637">
<path d="m108.17 166.17-25.727-14.958h-29.616l26.624 14.958z" fill="#333"/>
<path d="m82.147 150.91-14.658-24.83h-29.018l15.257 25.428z" fill="#333"/>
<path d="m67.489 126.08v-29.616h-28.719v29.915z" fill="#333"/>
<path d="m67.788 96.466 14.958-24.83-29.317-0.29916-14.359 25.428z" fill="#333"/>
<path d="m53.728 71.337 25.428-14.658h28.719l-25.428 15.257z" fill="#333"/>
<path d="m82.914 151.52 0.09013-29.759-14.808-25.648 0.3586 30.536z" fill="#1a1a1a"/>
<path d="m83.113 121.35 14.174-25.109-14.509-25.13-14.393 25.927z" fill="#1a1a1a"/>
<path d="m97.287 96.242 25.648-14.808-14.359-24.871-25.907 14.958z" fill="#1a1a1a"/>
<path d="m123.09 81.693 28.982 0.53885-14.399-25.539-29.201 0.27844z" fill="#1a1a1a"/>
<path d="m137.82 56.952 25.409 14.692 14.359 24.871-25.927-14.393z" fill="#1a1a1a"/>
<path d="m82.971 122.32 25.817-14.801 14.808-25.648-26.266 15.579z"/>
<path d="m109.2 107.41 28.832-0.27978 14.509-25.13-29.65 0.49878z"/>
<path d="m138.03 107.13 25.648 14.808 14.359-24.871-25.907-14.958z"/>
<path d="m163.53 122.2 14.024 25.368 14.918-25.24-14.842-25.149z"/>
<path d="m192.32 122.58-0.0194 29.35-14.359 24.871-0.49877-29.65z"/>
<path d="m108.29 107.77 25.727 14.958h29.616l-26.624-14.958z" fill="#1a1a1a"/>
<path d="m134.31 123.03 14.658 24.83h29.018l-15.257-25.428z" fill="#1a1a1a"/>
<path d="m148.97 147.85v29.616h28.719l1e-5 -29.915z" fill="#1a1a1a"/>
<path d="m148.67 177.47-14.958 24.83 29.317 0.29916 14.359-25.428z" fill="#1a1a1a"/>
<path d="m162.73 202.6-25.428 14.658h-28.719l25.428-15.257z" fill="#1a1a1a"/>
<path d="m133.55 122.42-0.0901 29.759 14.808 25.648-0.3586-30.536z" fill="#333"/>
<path d="m133.35 152.59-14.174 25.109 14.509 25.13 14.393-25.927z" fill="#333"/>
<path d="m119.17 177.69-25.648 14.808 14.359 24.871 25.907-14.958z" fill="#333"/>
<path d="m93.375 192.24-28.982-0.53885 14.399 25.539 29.201-0.27844z" fill="#333"/>
<path d="m78.643 216.98-25.409-14.692-14.359-24.871 25.927 14.393z" fill="#333"/>
<path d="m133.49 151.62-25.817 14.801-14.808 25.648 26.266-15.579z"/>
<path d="m107.26 166.53-28.832 0.27978-14.509 25.13 29.65-0.49877z"/>
<path d="m78.431 166.81-25.648-14.808-14.359 24.871 25.907 14.958z"/>
<path d="m52.933 151.74-14.024-25.368-14.918 25.24 14.842 25.149z"/>
<path d="m24.14 151.35 0.0194-29.35 14.359-24.871 0.49877 29.65z"/>
</g>
</svg>
